:SAMPLES-PER-SECOND 30
:FULLY-SPECIFIED
:DEGREES
145
root  -77.2992 41.6003 -2.61198 177.12 -82.0322 179.983
RightUpLeg  -2.87917 -8.29176 -7.33665
RightLeg  0.492466 -1.61014 2.84309
RightFoot  6.17351 -0.306437 2.26373
RightToes  -1.74624e-010 0 -3.6325e-017
Spine  5.0833 0.632785 7.21074
Spine1  1.57736 2.52481 -8.58152
HEad  -7.46851 3.72465 -0.617255
LeftShoulder1  2.47455 -5.11545 -22.3342
LeftArm  -20.7825 24.3861 -12.4555
LeftForeArm  21.3893 -14.5202 -1.58427
LeftHand  -0.244104 0.0205437 5.32207
RightShoulder  2.52471 4.66292 24.7886
RightArm  -17.7752 -19.353 6.62634
RightForeArm  -3.01452 6.78544 3.41556
RightHand  -1.01289 3.70853 -13.1435
LeftUpLeg  -2.68234 5.16629 1.06574
LeftLeg  5.80552 12.0614 -3.26243
LeftFoot  -0.833197 -0.446414 4.90637
LeftToes  -6.82154e-011 1.37952e-011 -1.79748e-011
146
root  -77.6431 41.6415 -2.80149 176.415 -81.2952 -178.861
RightUpLeg  -2.62347 -8.1731 -6.94639
RightLeg  -0.186105 -1.2366 3.09707
RightFoot  6.16737 -0.301083 2.22978
RightToes  -1.74624e-010 0 -3.6325e-017
Spine  4.27474 0.822736 7.35253
Spine1  1.14064 2.64393 -8.69363
HEad  -5.58096 4.44346 -0.546818
LeftShoulder1  1.73454 -3.6438 -17.5182
LeftArm  -33.695 26.2396 -10.9752
LeftForeArm  30.7738 -18.0723 -0.520177
LeftHand  -0.244104 0.0205437 5.32207
RightShoulder  2.07963 4.05062 21.2122
RightArm  -18.6289 -18.1002 2.12921
RightForeArm  -8.85344 6.14733 3.27056
RightHand  -0.982754 2.58786 -14.4511
LeftUpLeg  -2.33151 5.08635 1.52233
LeftLeg  5.51566 12.6908 -3.22614
LeftFoot  -1.2962 -0.385411 4.47471
LeftToes  -6.82154e-011 1.37952e-011 -1.79748e-011
147
root  -77.9162 41.6601 -3.03561 178.196 -81.0682 179.437
RightUpLeg  -2.99045 -8.09665 -6.75553
RightLeg  1.08769 -0.953783 2.96196
RightFoot  5.84885 -0.103949 0.947018
RightToes  -1.74624e-010 0 -3.6325e-017
Spine  3.9182 0.642452 6.01365
Spine1  0.999959 2.2284 -7.75351
HEad  -4.78382 5.45189 -0.211571
LeftShoulder1  1.08438 -1.97063 -12.6965
LeftArm  -43.4942 27.6562 -8.91341
LeftForeArm  40.9103 -21.537 -1.67621
LeftHand  -0.244104 0.0205437 5.32207
RightShoulder  1.66402 3.34725 17.6746
RightArm  -18.0123 -15.4665 -1.39283
RightForeArm  -15.7608 5.89051 3.89894
RightHand  -1.11934 2.20552 -17.1881
LeftUpLeg  -1.68031 5.00278 1.62342
LeftLeg  5.05711 12.9089 -3.35187
LeftFoot  -1.47015 -0.353671 4.19625
LeftToes  -6.82154e-011 1.37952e-011 -1.79748e-011
148
root  -78.1283 41.6659 -3.27087 179.055 -81.2357 178.393
RightUpLeg  -3.07554 -7.99367 -6.58513
RightLeg  2.52607 -1.22334 2.78957
RightFoot  4.92501 0.0073274 0.189927
RightToes  -1.74624e-010 0 -3.6325e-017
Spine  4.04233 0.339462 5.01358
Spine1  1.00667 1.80664 -7.1859
HEad  -4.79269 6.11103 0.193151
LeftShoulder1  0.678681 -0.721789 -8.51503
LeftArm  -34.2228 27.6064 -4.55462
LeftForeArm  32.2587 -21.8626 -2.6471
LeftHand  -0.244104 0.0205437 5.32207
RightShoulder  1.20342 2.2259 14.1397
RightArm  -18.107 -12.9782 -3.41674
RightForeArm  -18.8952 6.33698 4.33664
RightHand  -1.24546 2.4214 -18.5936
LeftUpLeg  -1.09946 5.10368 1.81535
LeftLeg  5.10228 12.5592 -3.32603
LeftFoot  -1.87048 -0.299104 3.74425
LeftToes  -6.82154e-011 1.37952e-011 -1.79748e-011
149
root  -78.3034 41.6716 -3.46884 178.127 -81.5035 179.241
RightUpLeg  -2.76241 -7.92085 -6.34337
RightLeg  2.91862 -1.68749 2.85541
RightFoot  4.16078 -0.0301041 0.43061
RightToes  -1.74624e-010 0 -3.6325e-017
Spine  4.20931 0.11014 5.20525
Spine1  0.912026 1.70743 -7.87304
HEad  -4.63244 6.33324 0.884122
LeftShoulder1  0.410832 0.139135 -4.16609
LeftArm  -25.0941 27.3171 -1.93611
LeftForeArm  20.5771 -22.9457 -3.79759
LeftHand  -0.244104 0.0205437 5.32207
RightShoulder  0.900012 1.21521 11.9965
RightArm  -19.1648 -11.308 -5.18423
RightForeArm  -18.2905 7.14639 4.29981
RightHand  -1.33107 3.06744 -18.3938
LeftUpLeg  -0.845565 5.36764 2.21637
LeftLeg  5.47226 11.9269 -3.14888
LeftFoot  -2.3615 -0.243402 3.28199
LeftToes  -6.82154e-011 1.37952e-011 -1.79748e-011
150
root  -78.4573 41.6778 -3.63845 177.308 -81.7909 -179.851
RightUpLeg  -2.51372 -7.92805 -6.13299
RightLeg  2.9469 -1.99039 3.02037
RightFoot  3.84709 -0.0551616 0.610139
RightToes  -1.74624e-010 0 -3.6325e-017
Spine  4.21119 0.020526 5.63173
Spine1  0.794015 1.76256 -8.63637
HEad  -4.16539 6.1996 1.50824
LeftShoulder1  0.224128 0.950883 -0.270349
LeftArm  -27.8153 26.8513 -2.89267
LeftForeArm  18.7461 -24.6622 -4.29503
LeftHand  -0.244104 0.0205437 5.32207
RightShoulder  0.716259 0.439667 11.0071
RightArm  -19.8416 -9.60392 -6.73158
RightForeArm  -18.5738 6.92417 4.29076
RightHand  -1.78706 5.53366 -19.0419
LeftUpLeg  -0.780493 5.54478 2.53102
LeftLeg  5.70528 11.3736 -2.96997
LeftFoot  -2.6117 -0.21664 3.04525
LeftToes  -6.82154e-011 1.37952e-011 -1.79748e-011
151
root  -78.5916 41.6876 -3.80286 177.516 -82.1859 179.964
RightUpLeg  -2.27651 -7.97638 -6.03553
RightLeg  3.12524 -2.30639 3.09201
RightFoot  3.54249 -0.018674 0.327581
RightToes  -1.74624e-010 0 -3.6325e-017
Spine  4.4977 -0.045776 5.89743
Spine1  0.24524 1.81526 -9.36112
HEad  -3.38566 5.75898 2.19592
LeftShoulder1  0.123218 1.28374 3.2817
LeftArm  -28.3821 25.9171 -4.25515
LeftForeArm  17.0568 -24.6685 -4.38289
LeftHand  -0.244104 0.0205437 5.32207
RightShoulder  0.652295 0.0952961 10.9115
RightArm  -19.2357 -7.81008 -7.98504
RightForeArm  -21.8665 5.60217 4.65197
RightHand  -2.58034 8.89858 -21.1024
LeftUpLeg  -0.560922 5.49126 2.66857
LeftLeg  5.61614 10.9708 -2.8754
LeftFoot  -2.6588 -0.199764 2.84262
LeftToes  -6.82154e-011 1.37952e-011 -1.79748e-011
152
root  -78.7075 41.701 -3.9611 177.712 -82.6474 179.709
RightUpLeg  -1.86506 -8.00702 -5.96948
RightLeg  3.1329 -2.78163 3.13873
RightFoot  3.08056 0.00409198 0.134883
RightToes  -1.74624e-010 0 -3.6325e-017
Spine  4.52858 -0.0228894 5.51122
Spine1  0.629804 1.71603 -8.57775
HEad  -3.60487 5.49503 1.80641
LeftShoulder1  0.114196 1.31247 3.67807
LeftArm  -26.814 23.7381 -4.07936
LeftForeArm  15.4595 -22.6971 -3.99761
LeftHand  -0.244104 0.0205437 5.32207
RightShoulder  0.482949 -0.667812 9.6809
RightArm  -19.5949 -6.16159 -7.84628
RightForeArm  -23.1136 5.43801 4.8225
RightHand  -2.65418 8.7961 -21.8051
LeftUpLeg  -0.209651 5.38672 2.83323
LeftLeg  5.37599 10.5581 -2.86127
LeftFoot  -2.71433 -0.1689 2.45615
LeftToes  -6.82154e-011 1.37952e-011 -1.79748e-011
